<?xml version="1.0" standalone="no"?><!DOCTYPE svg PUBLIC "-//W3C//DTD SVG 1.1//EN" "http://www.w3.org/Graphics/SVG/1.1/DTD/svg11.dtd"><svg t="1701512940422" class="icon" viewBox="0 0 1024 1024" version="1.1" xmlns="http://www.w3.org/2000/svg" p-id="7170" xmlns:xlink="http://www.w3.org/1999/xlink" width="32" height="32"><path d="M519.253333 0a85.333333 85.333333 0 0 1 60.373334 25.002667l291.413333 291.413333A85.333333 85.333333 0 0 1 896 376.746667V981.333333a42.666667 42.666667 0 0 1-42.666667 42.666667H170.666667a42.666667 42.666667 0 0 1-42.666667-42.666667V42.666667a42.666667 42.666667 0 0 1 42.666667-42.666667h348.586666zM469.333333 85.333333H213.333333v853.333334h597.333334V426.666667h-298.666667a42.666667 42.666667 0 0 1-42.666667-42.666667V85.333333z m305.92 256L554.666667 120.746667V341.333333h220.586666z" fill="#000000" opacity=".65" p-id="7171"></path></svg>